<svg xmlns="http://www.w3.org/2000/svg" fill="none" viewBox="0 0 180 180">
	<path fill="#7E0E28" d="M0 0h180v180H0z"/>
	<path fill="#fff" d="M121.246 90.235c6.446-5.68 10.514-13.987 10.514-23.243 0-17.118-13.9-30.992-31.049-30.992H48.24v108.36h52.471c17.146 0 31.049-13.822 31.049-30.937 0-9.256-4.068-17.512-10.514-23.188Zm-20.988-7.747v-9.04c0-2.131-1.292-3.263-3.428-3.263h-7.76c-2.136 0-3.997 1.132-3.997 3.264v8.991H78.72c-2.136 0-3.987 1.79-3.987 3.922v7.746c0 2.132 1.851 3.812 3.987 3.812h6.352v9.101c0 2.132 1.86 3.154 3.997 3.154h7.76c2.136 0 3.428-1.022 3.428-3.154v-9.04c9.693 0 15.751 7.053 15.751 15.609 0 8.556-6.723 15.609-15.298 15.609H64.395V51.157h36.316c8.575 0 15.298 7.108 15.298 15.664 0 8.556-6.058 15.664-15.751 15.664v.003Z"/>
</svg>
